<svg xmlns="http://www.w3.org/2000/svg" width="50" height="50" fill="#000" viewBox="0 0 512 512"><path d="M 256.01562 5 C 255.56933 5 255.11957 5.0010063 254.67188 5.0039062 A 182.2075 182.2075 0 0 0 143.91602 43.242188 A 186.0731 186.0731 0 0 0 78.947266 138.47656 A 6.0001371 6.0001371 0 1 0 90.480469 141.79102 C 111.45117 68.846216 179.00396 17.531806 254.75586 17.003906 A 172.16 172.16 0 0 1 367.08203 320.69141 A 72.6487 72.6487 0 0 0 341.43359 370.1543 L 170.5625 370.1543 A 72.9823 72.9823 0 0 0 144.80273 320.5957 A 171.71 171.71 0 0 1 83.853516 187.00977 A 6.0008 6.0008 0 0 0 77.927734 180.93555 L 77.851562 180.93555 A 6 6 0 0 0 71.853516 186.85938 A 183.6742 183.6742 0 0 0 137.04688 329.75195 A 60.832 60.832 0 0 1 158.81445 376.1543 A 6 6 0 0 0 164.81445 382.1543 L 347.18359 382.1543 A 6.0083 6.0083 0 0 0 353.18359 376.14453 A 60.5793 60.5793 0 0 1 374.82812 329.85547 A 184.1588 184.1588 0 0 0 256.01562 5 z M 171.38086 94.876953 A 10.1342 10.1342 0 0 0 161.25977 105 L 161.25977 182.10938 A 6 6 0 0 0 167.25977 188.10938 A 6 6 0 0 0 173.25977 182.10938 L 173.25977 147.49414 L 205.58984 147.49414 A 6 6 0 0 0 205.58984 135.49414 L 173.25977 135.49414 L 173.25977 106.87695 L 205.58984 106.87695 A 6 6 0 0 0 205.58984 94.876953 L 171.38086 94.876953 z M 224.9375 94.876953 A 6.0008 6.0008 0 0 0 219.95703 97.558594 C 218.57323 99.644094 218.24515 100.14013 218.74805 160.45703 A 27.9692 27.9692 0 0 0 246.63672 188.10938 A 27.9216 27.9216 0 0 0 274.52734 160.2207 L 274.52734 100.87695 A 6 6 0 0 0 262.52734 100.87695 L 262.52734 160.2207 A 15.89 15.89 0 0 1 230.74805 160.35547 C 230.35255 112.93117 230.66509 103.9165 230.80469 102.2207 A 6.0008 6.0008 0 0 0 224.9375 94.876953 z M 344.56641 94.878906 A 6 6 0 0 0 338.74023 100.87695 L 338.74023 162.50195 L 301.84961 98.722656 A 7.7 7.7 0 0 0 287.48633 102.58008 L 287.48633 182.10938 A 6 6 0 0 0 293.48633 188.10938 A 6 6 0 0 0 299.48633 182.10938 L 299.48633 118.60156 L 337.55664 184.42383 A 7.0661 7.0661 0 0 0 350.74023 180.88672 L 350.74023 100.87695 A 6 6 0 0 0 344.56641 94.878906 z M 80.359375 152.97656 A 6 6 0 0 0 74.484375 158 C 73.961875 160.9834 73.518553 164.03467 73.126953 167.32617 A 6.0038 6.0038 0 0 0 79.091797 174.03516 A 6.0012 6.0012 0 0 0 85.042969 168.74219 C 85.408269 165.67089 85.821287 162.83396 86.304688 160.06836 A 6 6 0 0 0 80.359375 152.97656 z M 138.02539 210.1875 A 10.1342 10.1342 0 0 0 127.90234 220.31055 L 127.90234 297.41992 A 6 6 0 1 0 139.90234 297.41992 L 139.90234 262.80273 L 172.23242 262.80273 A 6 6 0 0 0 172.23242 250.80273 L 139.90234 250.80273 L 139.90234 222.1875 L 172.23242 222.1875 A 6 6 0 0 0 172.23242 210.1875 L 138.02539 210.1875 z M 293.00977 210.1875 C 271.69977 210.1875 254.36133 231.09863 254.36133 256.80273 C 254.36133 282.50683 271.69977 303.41992 293.00977 303.41992 C 304.24317 303.41992 314.88965 297.57782 322.21875 287.39062 A 6.0004109 6.0004109 0 0 0 312.47656 280.38281 C 307.43076 287.39771 300.33517 291.41992 293.00977 291.41992 C 278.31647 291.41992 266.36328 275.89063 266.36328 256.80273 C 266.36328 237.71483 278.31667 222.1875 293.00977 222.1875 C 300.33107 222.1875 307.42576 226.21282 312.47656 233.23242 A 6 6 0 1 0 322.2168 226.22461 C 314.8847 216.03231 304.23927 210.1875 293.00977 210.1875 z M 332.26953 210.1875 A 6 6 0 0 0 332.26953 222.1875 L 349.18359 222.1875 L 349.18359 297.41992 A 6 6 0 0 0 361.18359 297.41992 L 361.18359 222.1875 L 378.09766 222.1875 A 6 6 0 0 0 378.09766 210.1875 L 332.26953 210.1875 z M 212.80469 210.19336 C 212.71359 210.19836 212.62556 210.2121 212.53516 210.2207 C 212.35216 210.23824 212.16919 210.26416 211.98633 210.29883 C 211.87383 210.32033 211.75924 210.33783 211.64844 210.36523 C 211.56534 210.38593 211.48319 210.41465 211.40039 210.43945 C 211.29319 210.47135 211.18693 210.50136 211.08203 210.53906 L 211.04883 210.54883 C 210.95973 210.58123 210.87556 210.6221 210.78906 210.6582 C 210.70546 210.6932 210.62086 210.72507 210.53906 210.76367 C 210.42556 210.81727 210.31768 210.8777 210.20898 210.9375 C 210.14828 210.9707 210.08674 211.00171 210.02734 211.03711 C 209.91484 211.10411 209.80747 211.1764 209.70117 211.25 C 209.64797 211.2866 209.59332 211.32107 209.54102 211.35938 C 209.43872 211.43457 209.34064 211.51666 209.24414 211.59766 C 209.19034 211.64276 209.13638 211.68532 209.08398 211.73242 C 208.99768 211.81012 208.91704 211.89251 208.83594 211.97461 C 208.77814 212.03311 208.71966 212.08949 208.66406 212.15039 C 208.59346 212.22829 208.52714 212.30992 208.46094 212.39062 C 208.40254 212.46183 208.34241 212.53302 208.28711 212.60742 C 208.22761 212.68742 208.17444 212.77052 208.11914 212.85352 C 208.06564 212.93352 208.01074 213.01075 207.96094 213.09375 C 207.90614 213.18475 207.85849 213.27925 207.80859 213.37305 C 207.76709 213.45155 207.72219 213.52858 207.68359 213.60938 C 207.62639 213.72938 207.57644 213.85452 207.52734 213.97852 C 207.50634 214.03152 207.48249 214.08097 207.46289 214.13477 L 207.44531 214.17969 L 207.44336 214.18555 L 177.89453 295.36719 A 6 6 0 1 0 189.16992 299.4707 L 198.39453 274.12695 L 227.80469 274.12695 L 237.02734 299.4707 A 6 6 0 1 0 248.30273 295.36719 L 218.75781 214.1875 L 218.75391 214.17969 L 218.73828 214.13477 C 218.71828 214.07907 218.69162 214.02736 218.66992 213.97266 C 218.62172 213.85136 218.57378 213.73128 218.51758 213.61328 C 218.47638 213.52628 218.42977 213.44378 218.38477 213.35938 C 218.33827 213.27247 218.29299 213.18421 218.24219 213.09961 C 218.18759 213.00861 218.12736 212.92138 218.06836 212.83398 C 218.01836 212.75968 217.97127 212.68538 217.91797 212.61328 C 217.85597 212.52978 217.78846 212.45079 217.72266 212.37109 C 217.66366 212.29939 217.60742 212.2271 217.54492 212.1582 C 217.48072 212.0874 217.4128 212.02042 217.3457 211.95312 C 217.2735 211.88073 217.2014 211.80913 217.125 211.74023 C 217.0616 211.68313 216.99499 211.63047 216.92969 211.57617 C 216.84419 211.50527 216.75992 211.43359 216.66992 211.36719 C 216.60422 211.31869 216.5344 211.27432 216.4668 211.22852 C 216.3733 211.16512 216.28149 211.10137 216.18359 211.04297 C 216.10729 210.99737 216.02762 210.95626 215.94922 210.91406 C 215.85682 210.86406 215.76572 210.81298 215.66992 210.76758 C 215.56542 210.71808 215.45721 210.67631 215.34961 210.63281 C 215.28271 210.60591 215.22104 210.57373 215.15234 210.54883 L 215.12695 210.54102 C 214.99645 210.49412 214.86222 210.45577 214.72852 210.41797 C 214.67052 210.40137 214.61279 210.37993 214.55469 210.36523 C 214.37719 210.32063 214.19722 210.28581 214.01562 210.25781 C 213.90652 210.24081 213.79835 210.23356 213.68945 210.22266 C 213.59155 210.21266 213.49498 210.19816 213.39648 210.19336 C 213.29798 210.18836 213.19996 210.19266 213.10156 210.19336 C 213.00316 210.19406 212.90359 210.18936 212.80469 210.19336 z M 213.10156 233.72852 L 223.4375 262.12891 L 202.76367 262.12891 L 213.10156 233.72852 z M 188.68945 399.69336 A 19.8384 19.8384 0 0 0 171.4082 429.29102 L 171.57227 429.57617 A 19.97 19.97 0 0 0 188.8418 439.63867 L 323.1582 439.63867 A 19.9588 19.9588 0 0 0 340.41406 429.60156 L 340.5918 429.29102 L 340.5918 429.28906 A 19.838 19.838 0 0 0 323.31055 399.69336 L 188.68945 399.69336 z M 188.68945 411.69336 L 323.31055 411.69336 A 7.7887 7.7887 0 0 1 330.10547 415.60938 A 7.65 7.65 0 0 1 330.1582 423.36328 L 330.01562 423.61328 A 7.9435 7.9435 0 0 1 323.1582 427.63867 L 188.8418 427.63867 A 7.9348 7.9348 0 0 1 181.99414 423.63086 L 181.8418 423.36328 A 7.65 7.65 0 0 1 181.89453 415.60742 A 7.7887 7.7887 0 0 1 188.68945 411.69336 z M 199.00586 456.02734 A 14.1533 14.1533 0 0 0 189.22852 480.42383 A 96.7258 96.7258 0 0 0 255.99414 507 A 96.7418 96.7418 0 0 0 322.76953 480.42383 A 14.1531 14.1531 0 0 0 312.99414 456.02734 L 199.00586 456.02734 z M 199.00586 468.02734 L 312.99414 468.02734 A 2.0754 2.0754 0 0 1 315.01367 469.4082 A 1.97 1.97 0 0 1 314.51953 471.71094 A 85.1682 85.1682 0 0 1 197.47852 471.71094 A 1.9708 1.9708 0 0 1 196.98633 469.41016 A 2.0751 2.0751 0 0 1 199.00586 468.02734 z"/></svg>